<?xml version="1.0" encoding="UTF-8" standalone="no"?>
<svg
   width="75"
   height="75"
   viewBox="0 0 75 75"
   fill="none"
   version="1.1"
   id="svg12"
   sodipodi:docname="cloudflare.svg"
   inkscape:export-filename="..\cloudflare32.png"
   inkscape:export-xdpi="40.959999"
   inkscape:export-ydpi="40.959999"
   inkscape:version="1.4.2 (f4327f4, 2025-05-13)"
   xmlns:inkscape="http://www.inkscape.org/namespaces/inkscape"
   xmlns:sodipodi="http://sodipodi.sourceforge.net/DTD/sodipodi-0.dtd"
   xmlns="http://www.w3.org/2000/svg"
   xmlns:svg="http://www.w3.org/2000/svg">
  <sodipodi:namedview
     id="namedview12"
     pagecolor="#505050"
     bordercolor="#eeeeee"
     borderopacity="1"
     inkscape:showpageshadow="0"
     inkscape:pageopacity="0"
     inkscape:pagecheckerboard="0"
     inkscape:deskcolor="#505050"
     inkscape:zoom="7.1302399"
     inkscape:cx="16.899852"
     inkscape:cy="34.430819"
     inkscape:window-width="2560"
     inkscape:window-height="1369"
     inkscape:window-x="1912"
     inkscape:window-y="1072"
     inkscape:window-maximized="1"
     inkscape:current-layer="svg12" />
  <path
     d="m 51.133502,53.970815 0.378,-1.3292 c 0.4589,-1.5734 0.2879,-3.0383 -0.477,-4.1053 -0.7019,-0.9857 -1.8718,-1.5643 -3.2937,-1.6366 l -26.9075,-0.3436 c -0.1799,-0.0091 -0.3329,-0.0905 -0.4229,-0.2262 -0.09,-0.1356 -0.117,-0.3165 -0.0539,-0.4883 0.0899,-0.2622 0.3509,-0.4701 0.6209,-0.4792 l 27.1503,-0.3436 c 3.2218,-0.1447 6.7045,-2.776 7.9284,-5.9771 l 1.5478,-4.0691 c 0.045,-0.1085 0.063,-0.226 0.063,-0.3436 0,-0.0633 -0.009,-0.1266 -0.018,-0.1899 -1.7458,-7.94832 -8.8102,-13.88923 -17.2424,-13.88923 -7.7752,0 -14.3806,5.0457 -16.7474,12.05363 -1.5299,-1.1484 -3.4827,-1.7633 -5.5885,-1.5554 -3.7346,0.3708 -6.7313,3.391 -7.1003,7.1436 -0.099,0.9766 -0.018,1.9079 0.2069,2.7941 -6.0923605,0.1809 -10.97890355,5.1994 -10.97890355,11.3574 0,0.5606 0.0449961,1.1031 0.1169891,1.6457 0.035996,0.2623 0.260976,0.4521 0.521951,0.4521 l 49.66626345,0.0091 c 0.0091,0 0.0091,0 0.0181,0 0.279,-0.0091 0.5309,-0.1989 0.6119,-0.4793 z"
     fill="#f6821f"
     id="path1" />
  <path
     d="m 60.097002,35.272515 c -0.2519,0 -0.495,0.0091 -0.7469,0.0181 -0.045,0 -0.081,0.009 -0.117,0.0271 -0.126,0.0452 -0.234,0.1537 -0.2699,0.2894 l -1.0619,3.6712 c -0.4591,1.5734 -0.288,3.0382 0.4769,4.1052 0.7019,0.9857 1.8718,1.5644 3.2937,1.6368 l 5.7325,0.3436 c 0.1709,0.009 0.315,0.0904 0.4049,0.226 0.099,0.1357 0.117,0.3165 0.063,0.4884 -0.09,0.2621 -0.351,0.4701 -0.6209,0.4792 l -5.9575,0.3436 c -3.2307,0.1537 -6.7224,2.776 -7.9463,5.9771 l -0.4319,1.1302 c -0.081,0.2081 0.072,0.4251 0.2789,0.4341 0.0091,0 0.0091,0 0.0181,0 h 20.5091 c 0.243,0 0.4589,-0.1628 0.531,-0.3978 0.3599,-1.2751 0.5489,-2.6133 0.5489,-4.0058 0,-8.1473 -6.5874,-14.7664 -14.7047,-14.7664 z"
     fill="#fbad41"
     id="path2" />
  <defs
     id="defs12">
    <clipPath
       id="clip0_1234_394">
      <rect
         width="231.908"
         height="35.929401"
         fill="#ffffff"
         transform="translate(0.0917969,2)"
         id="rect12"
         x="0"
         y="0" />
    </clipPath>
  </defs>
</svg>
